<?xml version="1.0" encoding="UTF-8" standalone="no"?>
<!-- Created with Inkscape (http://www.inkscape.org/) -->

<svg
   version="1.1"
   id="svg5049"
   xml:space="preserve"
   width="682.66669"
   height="682.66669"
   viewBox="0 0 682.66669 682.66669"
   xmlns="http://www.w3.org/2000/svg"
   xmlns:svg="http://www.w3.org/2000/svg"><defs
     id="defs5053"><clipPath
       clipPathUnits="userSpaceOnUse"
       id="clipPath5063"><path
         d="M 0,512 H 512 V 0 H 0 Z"
         id="path5061" /></clipPath></defs><g
     id="g5055"
     transform="matrix(1.3333333,0,0,-1.3333333,0,682.66667)"><g
       id="g5057"><g
         id="g5059"
         clip-path="url(#clipPath5063)"><g
           id="g5065"
           transform="translate(300.2393,22.6353)"><path
             d="M 0,0 C 23.413,0 42.393,18.98 42.393,42.393 H -42.394 C -42.394,18.98 -23.413,0 0,0"
             style="fill:#4980ac;fill-opacity:1;fill-rule:nonzero;stroke:none"
             id="path5067" /></g><g
           id="g5069"
           transform="translate(108.1333,22.6353)"><path
             d="M 0,0 C 23.413,0 42.394,18.98 42.394,42.393 H -42.393 C -42.393,18.98 -23.413,0 0,0"
             style="fill:#4980ac;fill-opacity:1;fill-rule:nonzero;stroke:none"
             id="path5071" /></g><g
           id="g5073"
           transform="translate(391.5244,202.6294)"><path
             d="m 0,0 v -91.085 c 25.153,0 45.543,20.39 45.543,45.543 C 45.543,-20.39 25.153,0 0,0"
             style="fill:#75cff9;fill-opacity:1;fill-rule:nonzero;stroke:none"
             id="path5075" /></g><g
           id="g5077"
           transform="translate(7.5,243.145)"><path
             d="m 0,0 v -172.117 c 0,-5.523 4.477,-10 10,-10 h 373.373 c 5.523,0 10,4.477 10,10 V 0 c 0,5.523 -4.477,10 -10,10 H 10 C 4.477,10 0,5.523 0,0"
             style="fill:#eec06b;fill-opacity:1;fill-rule:nonzero;stroke:none"
             id="path5079" /></g><g
           id="g5081"
           transform="translate(390.8726,253.145)"><path
             d="m 0,0 h -28 c 5.523,0 10,-4.477 10,-10 v -172.117 c 0,-5.523 -4.477,-10 -10,-10 H 0 c 5.523,0 10,4.477 10,10 V -10 C 10,-4.477 5.523,0 0,0"
             style="fill:#e9a761;fill-opacity:1;fill-rule:nonzero;stroke:none"
             id="path5083" /></g><g
           id="g5085"
           transform="translate(390.8726,253.145)"><path
             d="m 0,0 h -373.373 c -5.523,0 -10,-4.477 -10,-10 v -32.452 h 90.237 c 2.86,0 5.582,-1.224 7.48,-3.362 l 37.032,-41.728 c 1.898,-2.139 4.62,-3.362 7.479,-3.362 H 10 V -10 C 10,-4.477 5.523,0 0,0"
             style="fill:#cde2ff;fill-opacity:1;fill-rule:nonzero;stroke:none"
             id="path5087" /></g><g
           id="g5089"
           transform="translate(372.8726,243.145)"><path
             d="M 0,0 V -80.904 H 28 V 0 C 28,5.523 23.523,10 18,10 H -10 C -4.477,10 0,5.523 0,0"
             style="fill:#9ec8fc;fill-opacity:1;fill-rule:nonzero;stroke:none"
             id="path5091" /></g><g
           id="g5093"
           transform="translate(47.6353,253.145)"><path
             d="m 0,0 v 226.22 c 0,5.522 4.477,10 10,10 h 293.102 c 5.523,0 10,-4.477 10,-10 V 0 Z"
             style="fill:#4980ac;fill-opacity:1;fill-rule:nonzero;stroke:none"
             id="path5095" /></g><g
           id="g5097"
           transform="translate(350.7373,489.3647)"><path
             d="m 0,0 h -28 c 5.523,0 10,-4.478 10,-10 V -236.22 H 10 V -10 C 10,-4.478 5.523,0 0,0"
             style="fill:#407194;fill-opacity:1;fill-rule:nonzero;stroke:none"
             id="path5099" /></g><g
           id="g5101"
           transform="translate(178.1084,420.4424)"><path
             d="M 0,0 V 68.922 H 52.156 V 0 c 0,-2.761 -2.239,-5 -5,-5 H 5 C 2.239,-5 0,-2.761 0,0"
             style="fill:#cde2ff;fill-opacity:1;fill-rule:nonzero;stroke:none"
             id="path5103" /></g><g
           id="g5105"
           transform="translate(339.5937,224.0728)"><path
             d="m 0,0 c -9.046,0 -16.38,-7.333 -16.38,-16.38 0,-9.046 7.334,-16.379 16.38,-16.379 9.046,0 16.379,7.333 16.379,16.379 C 16.379,-7.333 9.046,0 0,0"
             style="fill:#4980ac;fill-opacity:1;fill-rule:nonzero;stroke:none"
             id="path5107" /></g><g
           id="g5109"
           transform="translate(257.7725,224.0728)"><path
             d="m 0,0 c -9.046,0 -16.379,-7.333 -16.379,-16.38 0,-9.046 7.333,-16.379 16.379,-16.379 9.046,0 16.379,7.333 16.379,16.379 C 16.379,-7.333 9.046,0 0,0"
             style="fill:#4980ac;fill-opacity:1;fill-rule:nonzero;stroke:none"
             id="path5111" /></g><g
           id="g5113"
           transform="translate(168.8232,130.5654)"><path
             d="m 0,0 c -3.196,0 -5.623,-2.97 -4.884,-6.08 4.327,-18.224 20.699,-31.781 40.247,-31.781 19.548,0 35.92,13.557 40.247,31.781 C 76.349,-2.97 73.922,0 70.726,0 Z"
             style="fill:#e9a761;fill-opacity:1;fill-rule:nonzero;stroke:none"
             id="path5115" /></g><g
           id="g5117"
           transform="translate(342.4399,61.0298)"><path
             d="m 0,0 c -2.01,-21.53 -20.14,-38.39 -42.2,-38.39 -22.06,0 -40.19,16.86 -42.2,38.39"
             style="fill:none;stroke:#000000;stroke-width:15;stroke-linecap:round;stroke-linejoin:round;stroke-miterlimit:10;stroke-dasharray:none;stroke-opacity:1"
             id="path5119" /></g><g
           id="g5121"
           transform="translate(150.3398,61.0298)"><path
             d="m 0,0 c -2.01,-21.53 -20.14,-38.39 -42.21,-38.39 -22.06,0 -40.19,16.86 -42.2,38.39"
             style="fill:none;stroke:#000000;stroke-width:15;stroke-linecap:round;stroke-linejoin:round;stroke-miterlimit:10;stroke-dasharray:none;stroke-opacity:1"
             id="path5123" /></g><g
           id="g5125"
           transform="translate(400.8701,201.6602)"><path
             d="M 0,0 C 20.67,-4.3 36.2,-22.62 36.2,-44.57 36.2,-66.52 20.67,-84.85 0,-89.15"
             style="fill:none;stroke:#000000;stroke-width:15;stroke-linecap:round;stroke-linejoin:round;stroke-miterlimit:10;stroke-dasharray:none;stroke-opacity:1"
             id="path5127" /></g><g
           id="g5129"
           transform="translate(7.5,243.145)"><path
             d="m 0,0 v -172.117 c 0,-5.523 4.477,-10 10,-10 h 373.373 c 5.523,0 10,4.477 10,10 V 0 c 0,5.523 -4.477,10 -10,10 H 10 C 4.477,10 0,5.523 0,0 Z"
             style="fill:none;stroke:#000000;stroke-width:15;stroke-linecap:round;stroke-linejoin:round;stroke-miterlimit:10;stroke-dasharray:none;stroke-opacity:1"
             id="path5131" /></g><g
           id="g5133"
           transform="translate(47.6353,253.145)"><path
             d="M 0,0 V 107.05"
             style="fill:none;stroke:#000000;stroke-width:15;stroke-linecap:round;stroke-linejoin:round;stroke-miterlimit:10;stroke-dasharray:none;stroke-opacity:1"
             id="path5135" /></g><g
           id="g5137"
           transform="translate(47.6353,395.1948)"><path
             d="m 0,0 v 84.17 c 0,5.522 4.477,10 10,10 h 293.102 c 5.523,0 10,-4.477 10,-10 v -226.22"
             style="fill:none;stroke:#000000;stroke-width:15;stroke-linecap:round;stroke-linejoin:round;stroke-miterlimit:10;stroke-dasharray:none;stroke-opacity:1"
             id="path5139" /></g><g
           id="g5141"
           transform="translate(230.2642,489.3647)"><path
             d="m 0,0 v -68.922 c 0,-2.762 -2.238,-5 -5,-5 h -42.156 c -2.761,0 -5,2.238 -5,5 V 0"
             style="fill:none;stroke:#000000;stroke-width:15;stroke-linecap:round;stroke-linejoin:round;stroke-miterlimit:10;stroke-dasharray:none;stroke-opacity:1"
             id="path5143" /></g><g
           id="g5145"
           transform="translate(490.7134,192.8574)"><path
             d="M 0,0 C 8.564,-9.473 13.787,-22.025 13.787,-35.771 13.787,-49.516 8.564,-62.068 0,-71.541"
             style="fill:none;stroke:#000000;stroke-width:15;stroke-linecap:round;stroke-linejoin:round;stroke-miterlimit:10;stroke-dasharray:none;stroke-opacity:1"
             id="path5147" /></g><g
           id="g5149"
           transform="translate(461.6738,181.3555)"><path
             d="M 0,0 C 6.394,-6.109 10.382,-14.729 10.382,-24.272 10.382,-33.814 6.394,-42.428 0,-48.538"
             style="fill:none;stroke:#000000;stroke-width:15;stroke-linecap:round;stroke-linejoin:round;stroke-miterlimit:10;stroke-dasharray:none;stroke-opacity:1"
             id="path5151" /></g><g
           id="g5153"
           transform="translate(92.791,296.3633)"><path
             d="M 0,0 H 49.675"
             style="fill:none;stroke:#000000;stroke-width:15;stroke-linecap:round;stroke-linejoin:round;stroke-miterlimit:10;stroke-dasharray:none;stroke-opacity:1"
             id="path5155" /></g><g
           id="g5157"
           transform="translate(92.791,328.021)"><path
             d="M 0,0 H 49.675"
             style="fill:none;stroke:#000000;stroke-width:15;stroke-linecap:round;stroke-linejoin:round;stroke-miterlimit:10;stroke-dasharray:none;stroke-opacity:1"
             id="path5159" /></g><g
           id="g5161"
           transform="translate(358.2393,162.2407)"><path
             d="M 0,0 H 42.633"
             style="fill:none;stroke:#000000;stroke-width:15;stroke-linecap:round;stroke-linejoin:round;stroke-miterlimit:10;stroke-dasharray:none;stroke-opacity:1"
             id="path5163" /></g><g
           id="g5165"
           transform="translate(7.5,210.6929)"><path
             d="m 0,0 h 90.237 c 2.859,0 5.581,-1.224 7.479,-3.362 l 37.033,-41.728 c 1.897,-2.139 4.62,-3.362 7.479,-3.362 h 173.511"
             style="fill:none;stroke:#000000;stroke-width:15;stroke-linecap:round;stroke-linejoin:round;stroke-miterlimit:10;stroke-dasharray:none;stroke-opacity:1"
             id="path5167" /></g><g
           id="g5169"
           transform="translate(339.5937,224.0728)"><path
             d="m 0,0 c -9.046,0 -16.38,-7.333 -16.38,-16.38 0,-9.046 7.334,-16.379 16.38,-16.379 9.046,0 16.379,7.333 16.379,16.379 C 16.379,-7.333 9.046,0 0,0 Z"
             style="fill:none;stroke:#000000;stroke-width:15;stroke-linecap:round;stroke-linejoin:round;stroke-miterlimit:10;stroke-dasharray:none;stroke-opacity:1"
             id="path5171" /></g><g
           id="g5173"
           transform="translate(257.7725,224.0728)"><path
             d="m 0,0 c -9.046,0 -16.379,-7.333 -16.379,-16.38 0,-9.046 7.333,-16.379 16.379,-16.379 9.046,0 16.379,7.333 16.379,16.379 C 16.379,-7.333 9.046,0 0,0 Z"
             style="fill:none;stroke:#000000;stroke-width:15;stroke-linecap:round;stroke-linejoin:round;stroke-miterlimit:10;stroke-dasharray:none;stroke-opacity:1"
             id="path5175" /></g><g
           id="g5177"
           transform="translate(168.8232,130.5654)"><path
             d="m 0,0 c -3.196,0 -5.623,-2.97 -4.884,-6.08 4.327,-18.224 20.699,-31.781 40.247,-31.781 19.548,0 35.92,13.557 40.247,31.781 C 76.349,-2.97 73.922,0 70.726,0 Z"
             style="fill:none;stroke:#000000;stroke-width:15;stroke-linecap:round;stroke-linejoin:round;stroke-miterlimit:10;stroke-dasharray:none;stroke-opacity:1"
             id="path5179" /></g></g></g></g></svg>
