<svg height="512" viewBox="0 0 96 96" width="512" xmlns="http://www.w3.org/2000/svg"><g id="Cooking_oil" data-name="Cooking oil"><rect fill="#f9a454" height="13.62" rx="2.77" width="36.83" x="29.58" y="81.38"/><rect fill="#f9c74f" height="13.62" rx="2.77" width="31.25" x="29.58" y="81.38"/><rect fill="#f9ea63" height="13.62" rx="2.77" width="25.24" x="32.59" y="81.38"/><path d="m63.88 81.38h-31.76a2.55 2.55 0 0 1 0-5.09h31.76a2.55 2.55 0 0 1 0 5.09z" fill="#f9a454"/><path d="m58.29 81.38h-26.17a2.55 2.55 0 0 1 0-5.09h26.17a2.55 2.55 0 0 1 0 5.09z" fill="#f9c74f"/><path d="m55.29 81.38h-20.16a2.55 2.55 0 0 1 0-5.09h20.16a2.55 2.55 0 0 1 0 5.09z" fill="#f9ea63"/><path d="m63.88 76.29h-31.76a2.54 2.54 0 1 1 0-5.08h31.76a2.54 2.54 0 0 1 0 5.08z" fill="#f9a454"/><path d="m58.29 76.29h-26.17a2.54 2.54 0 1 1 0-5.08h26.17a2.54 2.54 0 0 1 0 5.08z" fill="#f9c74f"/><path d="m55.29 76.29h-20.16a2.54 2.54 0 1 1 0-5.08h20.16a2.54 2.54 0 0 1 0 5.08z" fill="#f9ea63"/><rect fill="#fff" height="2.54" rx="1.27" width="9.83" x="40.29" y="71.21"/><path d="m63.88 71.21h-31.76a2.55 2.55 0 0 1 0-5.09h31.76a2.55 2.55 0 0 1 0 5.09z" fill="#f9a454"/><path d="m58.29 71.21h-26.17a2.54 2.54 0 1 1 0-5.08h26.17a2.54 2.54 0 0 1 0 5.08z" fill="#f9c74f"/><path d="m55.29 71.21h-20.16a2.54 2.54 0 1 1 0-5.08h20.16a2.54 2.54 0 0 1 0 5.08z" fill="#f9ea63"/><path d="m47.58 71.21h-4.75a2.54 2.54 0 0 1 0-5.08h4.75a2.54 2.54 0 1 1 0 5.08z" fill="#fff"/><rect fill="#ef4f36" height="27.18" rx="2.54" width="36.83" x="29.58" y="38.95"/><rect fill="#dbdbdb" height="27.18" rx="2.54" width="31.25" x="29.58" y="38.95"/><rect fill="#f98154" height="27.18" rx="2.54" width="31.25" x="29.58" y="38.95"/><rect fill="#f1f2f2" height="23.86" rx="2.54" width="9.83" x="40.29" y="38.95"/><path d="m63.88 39h-31.76a2.55 2.55 0 0 1 0-5.09h31.76a2.55 2.55 0 0 1 0 5.09z" fill="#f9a454"/><path d="m58.29 39h-26.17a2.55 2.55 0 0 1 0-5.09h26.17a2.55 2.55 0 0 1 0 5.09z" fill="#f9c74f"/><path d="m55.29 39h-20.16a2.55 2.55 0 0 1 0-5.09h20.16a2.55 2.55 0 0 1 0 5.09z" fill="#f9ea63"/><rect fill="#fff" height="2.54" rx="1.27" width="9.83" x="40.29" y="33.86"/><path d="m66.42 28.44v2.65a2.77 2.77 0 0 1 -2.77 2.77h-5.59a2.77 2.77 0 0 0 2.77-2.77v-2.65a12.13 12.13 0 0 0 -4.27-9.24l-9.14-7.78h5.58l9.15 7.78a12.13 12.13 0 0 1 4.27 9.24z" fill="#f9a454"/><path d="m60.83 28.44v2.65a2.77 2.77 0 0 1 -2.77 2.77h-25.71a2.77 2.77 0 0 1 -2.77-2.77v-2.65a12.13 12.13 0 0 1 4.27-9.24l9.15-7.78h4.42l9.14 7.78a12.13 12.13 0 0 1 4.27 9.24z" fill="#f9c74f"/><path d="m35 30.86a2.42 2.42 0 0 1 -2.42-2.42 9.13 9.13 0 0 1 3.22-7l7.46-6.34a3 3 0 0 1 3.9 0l7.46 6.34a9.15 9.15 0 0 1 3.21 7 2.42 2.42 0 0 1 -2.42 2.42z" fill="#f9ea63"/><path d="m34 26.84a1 1 0 0 1 -.95-1.32c1-2.95 2.81-4.1 5.83-6.67a1 1 0 0 1 1.3 1.52c-3.07 2.63-4.44 3.46-5.18 5.79a1 1 0 0 1 -1 .68z" fill="#fff"/><path d="m43 7.42h10v4h-10z" fill="#f9a454"/><path d="m43 7.42h5.78v4h-5.78z" fill="#f9c74f"/><rect fill="#f97740" height="6.42" rx="1.48" width="13.17" x="41.42" y="1"/><rect fill="#f9a454" height="6.42" rx="1.48" width="9.02" x="41.42" y="1"/><path d="m47.46 3.19h-2.54a1 1 0 0 0 -1 1 1 1 0 0 0 1 1h2.54a1 1 0 1 0 0-2z" fill="#f9c74f"/><path d="m52.3 54.32a4.3 4.3 0 0 1 -8.6 0c0-2.37 4.3-7.87 4.3-7.87s4.3 5.55 4.3 7.87z" fill="#f9ea63"/><g fill="#302d3d"><path d="m67.42 31.09v-2.65a13.13 13.13 0 0 0 -4.62-10l-8.8-7.44v-2.76a2.47 2.47 0 0 0 1.58-2.3v-3.46a2.48 2.48 0 0 0 -2.48-2.48h-10.2a2.48 2.48 0 0 0 -2.48 2.48v3.46a2.47 2.47 0 0 0 1.58 2.3v2.76c-1 .8-3.22 2.74-8.8 7.49a13.13 13.13 0 0 0 -4.62 10v2.65a3.74 3.74 0 0 0 1.16 2.71 3.52 3.52 0 0 0 -.07 5.15 3.5 3.5 0 0 0 -1.09 2.54v22.04a3.5 3.5 0 0 0 1.09 2.54 3.52 3.52 0 0 0 0 5.09 3.51 3.51 0 0 0 0 5.08 3.52 3.52 0 0 0 .07 5.15 3.74 3.74 0 0 0 -1.16 2.71v8.07a3.77 3.77 0 0 0 3.77 3.78h31.3a3.77 3.77 0 0 0 3.77-3.77v-8.08a3.74 3.74 0 0 0 -1.16-2.71 3.52 3.52 0 0 0 .07-5.15 3.51 3.51 0 0 0 0-5.08 3.52 3.52 0 0 0 0-5.09 3.5 3.5 0 0 0 1.09-2.54v-22.09a3.5 3.5 0 0 0 -1.09-2.49 3.52 3.52 0 0 0 -.07-5.15 3.74 3.74 0 0 0 1.16-2.76zm-23.42-20.67v-2h8v2c-1.24-.02-3.56-.01-8 0zm-1.58-7.94a.47.47 0 0 1 .48-.48h10.2a.47.47 0 0 1 .48.48v3.46a.48.48 0 0 1 -.48.48h-10.2a.48.48 0 0 1 -.48-.48zm-11.84 26a11.12 11.12 0 0 1 3.92-8.48l8.87-7.54h3.68c9.63 8.2 9 7.78 9.51 7.78a1 1 0 0 0 .65-1.76l-7.08-6h2.5l8.87 7.52a11.12 11.12 0 0 1 3.92 8.48v2.65a1.77 1.77 0 0 1 -1.77 1.77h-2.25a3.68 3.68 0 0 0 .43-1.77 22.64 22.64 0 0 0 -.31-5.48 1 1 0 0 0 -2 .43 21.86 21.86 0 0 1 .26 5.05 1.77 1.77 0 0 1 -1.77 1.77h-25.66a1.77 1.77 0 0 1 -1.77-1.77zm0 8a1.55 1.55 0 0 1 1.54-1.55h26.17a1.55 1.55 0 0 1 0 3.09h-26.17a1.54 1.54 0 0 1 -1.54-1.61zm0 32.26a1.55 1.55 0 0 1 1.54-1.55h26.17a1.55 1.55 0 0 1 0 3.09h-26.17a1.54 1.54 0 0 1 -1.54-1.61zm0 5.08a1.54 1.54 0 0 1 1.54-1.54h26.17a1.54 1.54 0 0 1 0 3.08h-26.17a1.54 1.54 0 0 1 -1.54-1.61zm1.54 6.63a1.55 1.55 0 0 1 0-3.09h26.17a1.55 1.55 0 0 1 0 3.09zm33.3 11.84a1.77 1.77 0 0 1 -1.77 1.71h-2.17a3.46 3.46 0 0 0 .35-1.54 1 1 0 0 0 -2 0 1.54 1.54 0 0 1 -1.54 1.54h-25.94a1.77 1.77 0 0 1 -1.77-1.77v-8.08a1.77 1.77 0 0 1 1.77-1.77h25.94a1.54 1.54 0 0 1 1.54 1.54v2.88a1 1 0 0 0 2 0c0-2.71.13-3.45-.35-4.42h2.17a1.77 1.77 0 0 1 1.77 1.77zm0-13.39a1.55 1.55 0 0 1 -1.54 1.55h-2.4a3.49 3.49 0 0 0 0-3.09h2.41a1.54 1.54 0 0 1 1.53 1.47zm0-5.08a1.54 1.54 0 0 1 -1.54 1.54h-2.4a3.51 3.51 0 0 0 0-3.08h2.4a1.54 1.54 0 0 1 1.54 1.47zm0-5.08a1.54 1.54 0 0 1 -1.54 1.54h-2.4a3.53 3.53 0 0 0 0-3.09h2.4a1.55 1.55 0 0 1 1.54 1.48zm0-27.18v22.02a1.54 1.54 0 0 1 -1.54 1.54h-2.4c.43-.88.35-1.32.35-3.66a1 1 0 1 0 -2 0v2.12a1.54 1.54 0 0 1 -1.54 1.54h-26.17a1.54 1.54 0 0 1 -1.54-1.54v-22.09a1.54 1.54 0 0 1 1.54-1.49h26.17a1.54 1.54 0 0 1 1.54 1.54v8.3a1 1 0 1 0 2 0c0-8.9.13-8.83-.36-9.84h2.41a1.54 1.54 0 0 1 1.54 1.49zm-1.54-6.63a1.55 1.55 0 0 1 0 3.09h-2.4a3.53 3.53 0 0 0 0-3.09z"/><path d="m47.21 45.84c-.75 1-4.51 5.89-4.51 8.48a5.3 5.3 0 0 0 10.6 0c0-2.59-3.76-7.52-4.51-8.48a1 1 0 0 0 -1.58 0zm.79 11.78a3.3 3.3 0 0 1 -3.3-3.3c0-1.19 1.74-4 3.3-6.2 1.56 2.16 3.3 5 3.3 6.2a3.3 3.3 0 0 1 -3.3 3.3z"/><path d="m60.83 53.5a1 1 0 0 0 -1 1v2a1 1 0 1 0 2 0v-2a1 1 0 0 0 -1-1z"/></g><rect fill="#fff" height="4.38" rx="2.19" width="11.63" x="38.5" y="85.99"/></g></svg>