<svg viewBox="0 0 64 64" xmlns="http://www.w3.org/2000/svg"><g id="Layer_48" data-name="Layer 48"><path d="m32 47h21a0 0 0 0 1 0 0v5a2 2 0 0 1 -2 2h-17a2 2 0 0 1 -2-2v-5a0 0 0 0 1 0 0z" fill="#e5870a"/><path d="m32 40.63v10.74a2.63 2.63 0 0 1 -2.63 2.63h-1.74a2.63 2.63 0 0 1 -2.63-2.63v-10.74a2.63 2.63 0 0 1 2.63-2.63h1.74a2.59 2.59 0 0 1 .63.08 2.63 2.63 0 0 1 2 2.55z" fill="#f49e21"/><path d="m32 43.63v7.74a2.63 2.63 0 0 1 -2.63 2.63h-1.74a2.63 2.63 0 0 1 -2.63-2.63v-7.74a2.63 2.63 0 0 1 2.63-2.63h1.74a2.59 2.59 0 0 1 .63.08 2.63 2.63 0 0 1 2 2.55z" fill="#e5870a"/><path d="m60 40.63v10.74a2.63 2.63 0 0 1 -2.63 2.63h-1.74a2.63 2.63 0 0 1 -2.63-2.63v-10.74a2.63 2.63 0 0 1 2-2.55 2.59 2.59 0 0 1 .63-.08h1.74a2.63 2.63 0 0 1 2.63 2.63z" fill="#f49e21"/><path d="m60 43.63v7.74a2.63 2.63 0 0 1 -2.63 2.63h-1.74a2.63 2.63 0 0 1 -2.63-2.63v-7.74a2.63 2.63 0 0 1 2-2.55 2.59 2.59 0 0 1 .63-.08h1.74a2.63 2.63 0 0 1 2.63 2.63z" fill="#e5870a"/><g fill="#99501a"><path d="m4 39h17v10h-17z"/><path d="m19 48h2v7h-2z"/><path d="m4 48h2v7h-2z"/></g><path d="m53 45v2h-21v-2a4 4 0 0 1 4-4h13a4 4 0 0 1 4 4z" fill="#f9ac46"/><path d="m53 47h-21a4 4 0 0 1 4-4h13a4 4 0 0 1 4 4z" fill="#f49e21"/><path d="m55 31v7.08a2.63 2.63 0 0 0 -2 2.55v4.37a4 4 0 0 0 -4-4h-13a4 4 0 0 0 -4 4v-4.37a2.63 2.63 0 0 0 -2-2.55v-7.08a6 6 0 0 1 6-6h13a5.8 5.8 0 0 1 2 .35 6 6 0 0 1 4 5.65z" fill="#f49e21"/><path d="m10 43h5v2h-5z" fill="#aabece"/><path d="m15 39h-5l-2-7h9z" fill="#aabece"/><path d="m19 25a7 7 0 0 1 -6 7 2.46 2.46 0 0 1 -1 0 7.07 7.07 0 0 1 -6-7 7 7 0 0 1 4.47 1.59 7.08 7.08 0 0 0 1.53 4.41c.15.17.3.34.46.5.16-.16.31-.33.46-.5a7.08 7.08 0 0 0 1.61-4.45 7 7 0 0 1 4.47-1.55z" fill="#e5870a"/><path d="m14.57 26.5v.05a7.08 7.08 0 0 1 -1.57 4.45c-.15.17-.3.34-.46.5-.16-.16-.31-.33-.46-.5a7.08 7.08 0 0 1 .46-9.5 7 7 0 0 1 2.03 5z" fill="#f49e21"/><path d="m23 20h2v35h-2z" fill="#aabece"/><path d="m31 21h-14l.09-1 .91-10h12z" fill="#cfdfe8"/><path d="m20 20h-2.91l.91-10h11.09a9.17 9.17 0 0 1 -9.09 10z" fill="#e9f0f4"/><path d="m51 25a13 13 0 0 1 -13 13h-8v-7a6 6 0 0 1 6-6z" fill="#f9ac46"/></g></svg>